<?xml version="1.0" encoding="UTF-8" standalone="no"?>
<!-- Created with Inkscape (http://www.inkscape.org/) -->

<svg
   id="svg2"
   version="1.1"
   inkscape:version="1.4.2 (ebf0e940d0, 2025-05-08)"
   xml:space="preserve"
   width="879.22864"
   height="724.4671"
   viewBox="0 0 879.22864 724.4671"
   sodipodi:docname="development-speed.svg"
   xmlns:inkscape="http://www.inkscape.org/namespaces/inkscape"
   xmlns:sodipodi="http://sodipodi.sourceforge.net/DTD/sodipodi-0.dtd"
   xmlns="http://www.w3.org/2000/svg"
   xmlns:svg="http://www.w3.org/2000/svg"
   xmlns:rdf="http://www.w3.org/1999/02/22-rdf-syntax-ns#"
   xmlns:cc="http://creativecommons.org/ns#"
   xmlns:dc="http://purl.org/dc/elements/1.1/"><metadata
     id="metadata8"><rdf:RDF><cc:Work
         rdf:about=""><dc:format>image/svg+xml</dc:format><dc:type
           rdf:resource="http://purl.org/dc/dcmitype/StillImage" /><dc:title /></cc:Work></rdf:RDF></metadata><defs
     id="defs6" /><sodipodi:namedview
     pagecolor="#ffffff"
     bordercolor="#666666"
     borderopacity="1"
     objecttolerance="10"
     gridtolerance="10"
     guidetolerance="10"
     inkscape:pageopacity="0"
     inkscape:pageshadow="2"
     inkscape:window-width="1536"
     inkscape:window-height="923"
     id="namedview4"
     showgrid="false"
     inkscape:zoom="0.6849216"
     inkscape:cx="328.50475"
     inkscape:cy="417.56604"
     inkscape:window-x="0"
     inkscape:window-y="0"
     inkscape:window-maximized="1"
     inkscape:current-layer="g10"
     fit-margin-top="0"
     fit-margin-left="0"
     fit-margin-right="0"
     fit-margin-bottom="0"
     inkscape:showpageshadow="0"
     inkscape:pagecheckerboard="1"
     inkscape:deskcolor="#d1d1d1" /><g
     id="g10"
     inkscape:groupmode="layer"
     inkscape:label="ink_ext_XXXXXX"
     transform="matrix(1.25,0,0,-1.25,3.1997347,731.41548)"><path
   inkscape:connector-curvature="0"
   id="path14"
   style="fill:none;stroke:#000000;stroke-width:1;stroke-linecap:butt;stroke-linejoin:miter;stroke-miterlimit:3.79999995;stroke-dasharray:none;stroke-opacity:1"
   d="m 19.8,41.95 680.35,0" /><path
   inkscape:connector-curvature="0"
   id="path16"
   style="fill:none;stroke:#000000;stroke-width:1;stroke-linecap:butt;stroke-linejoin:miter;stroke-miterlimit:3.79999995;stroke-dasharray:none;stroke-opacity:1"
   d="m 52.2,18.7 0,488.25" /><path
   inkscape:connector-curvature="0"
   id="path40"
   style="fill:none;stroke:#0000ff;stroke-width:1.6;stroke-linecap:butt;stroke-linejoin:miter;stroke-miterlimit:3.79999995;stroke-dasharray:none;stroke-opacity:1"
   d="m 657.4,498.3 M 54.15,64.4 l 6.9,20.8 6.85,14.05 6.9,10.1 6.85,11.75 6.85,6.65 6.9,9.95 6.85,5.25 6.9,9.8 6.85,5.8 6.9,6.65 6.85,5.25 6.9,5.1 6.85,5.7 6.85,1.95 6.9,5.55 6.85,7.2 6.9,2.3 6.85,4.55 6.9,6.3 6.85,2.35 6.9,5.55 6.85,1.4 6.85,8.2 6.9,2.8 6.85,4.95 6.9,1.3 6.85,5.75 6.9,1.7 6.85,2 6.9,5.65 6.85,2.9 6.85,5.4 6.9,0.15 6.85,4.85 6.9,3.35 6.85,3.7 6.9,0.7 6.85,4.45 6.9,2.2 6.85,5.1 6.85,2.1 6.9,4.45 6.85,1.4 6.9,4.05 6.85,0.45 6.9,3.65 6.85,2 6.9,3.8 6.85,0.3 6.85,4.6 6.9,2.8 6.85,4.65 6.9,0.5 6.85,1.4 6.9,3.75 6.85,4.5 6.9,1.5 6.85,-0.1 6.85,4.45 6.9,2.8 6.85,1.4 6.9,4.65 6.85,0.3 6.9,1.35 6.85,4.8 6.9,-0.15 6.85,3.55 6.85,3.35 6.9,0.1 6.85,3.9 6.9,2.1 6.85,3.05 6.9,2.65 6.85,-0.45 6.9,1.8 6.85,4.8 6.85,2.15 6.9,0.65 6.85,1.7 6.9,3.35 6.85,2.75 6.9,1.7 6.85,3.5 6.9,0.3 6.85,3.15 6.85,2.45 6.9,-1.3 6.85,1.75 6.9,5.45 6.85,-1.35 6.9,1.35 6.85,4.6 6.9,3.8 6.85,-2.1" /><path
   inkscape:connector-curvature="0"
   id="path48"
   style="fill:none;stroke:#ff0000;stroke-width:1.6079;stroke-linecap:butt;stroke-linejoin:miter;stroke-miterlimit:3.8;stroke-dasharray:none;stroke-opacity:1"
   d="m 682.73786,472.90746 m -624.128836,19.92144 0.647489,-44.05021 6.823529,-110.5057 6.873337,-49.82895 6.823529,-34.52036 6.82353,-23.06426 6.873336,-15.35928 6.823526,-15.91688 6.87334,-10.79711 6.82353,-9.07364 6.87334,-9.2257 6.82353,-3.19352 6.87334,-7.046 6.82353,-6.33634 6.82353,-3.95387 6.87333,-7.04601 6.82353,-3.2442 6.87334,-2.68661 6.82353,-2.28108 6.87333,-4.20733 6.82353,-3.90318 6.87334,-1.21658 6.82353,-2.58522 6.82353,-2.33177 6.87334,-3.34559 6.82353,2.07832 6.87333,-5.47459 6.82353,1.97693 6.87334,-1.52072 6.82353,-1.41934 6.87333,-5.72804 6.82353,1.16588 6.82353,-2.48384 6.87334,-0.45622 6.82353,-2.28108 6.87334,-1.36865 6.82353,0.50691 6.87333,-1.67279 6.82353,-1.1152 6.87334,0.40553 6.82353,-0.0507 6.82353,-1.82487 6.87333,-4.30871 6.82353,-0.40552 6.87334,0.5069 6.82353,1.01382 6.87334,-2.33177 6.82353,-2.63592 6.87333,1.11519 6.82353,1.47003 6.82353,-3.8018 6.87334,0.76036 6.82353,-0.86174 6.87333,0.91243 6.82353,-3.34558 6.87334,0.20276 6.82353,1.6221 6.87334,-1.6221 6.82353,-2.483842 6.82353,2.737292 6.87333,-0.861737 6.82353,-4.663543 6.87334,1.926246 6.82353,-0.861742 6.87333,-1.672793 6.82353,0.354835 6.87334,2.129009 6.82353,-2.585225 6.82353,-0.76036 6.87334,2.23039 6.82353,-3.446967 6.87333,-0.354835 6.82353,1.875556 6.87334,0.05069 6.82353,-3.396277 6.87333,1.013814 6.82353,1.064505 6.82353,-0.963123 6.87334,-1.368649 6.82353,0.912432 6.87334,-2.889369 6.82353,1.672793 6.87333,-2.686607 6.82353,3.193514 6.87334,-3.041442 6.82353,0.05069 6.82353,-1.317958 6.87333,-0.76036 6.82353,2.483844 6.87334,-2.686607 6.82353,2.838679 6.87334,-1.976937 6.82353,-1.47003 6.87333,0.963123 6.82353,0.70967" /><path
   inkscape:connector-curvature="0"
   id="path50"
   style="fill:none;stroke:#000000;stroke-width:0.5;stroke-linecap:butt;stroke-linejoin:miter;stroke-miterlimit:3.79999995;stroke-dasharray:none;stroke-opacity:1"
   d="m 684.4,48.25 15.75,-6.3 -15.75,-6.3 m -18.25,6.3 34,0" /><path
   inkscape:connector-curvature="0"
   id="path52"
   style="fill:none;stroke:#000000;stroke-width:0.5;stroke-linecap:butt;stroke-linejoin:miter;stroke-miterlimit:3.79999995;stroke-dasharray:none;stroke-opacity:1"
   d="m 684.4,48.25 15.75,-6.3 -15.75,-6.3" /><path
   inkscape:connector-curvature="0"
   id="path54"
   style="fill:none;stroke:#000000;stroke-width:0.5;stroke-linecap:butt;stroke-linejoin:miter;stroke-miterlimit:3.79999995;stroke-dasharray:none;stroke-opacity:1"
   d="m 46.3,496.3 5.9,10.65 5.9,-10.65 m -5.9,-13.75 0,24.4" /><path
   inkscape:connector-curvature="0"
   id="path56"
   style="fill:none;stroke:#000000;stroke-width:0.5;stroke-linecap:butt;stroke-linejoin:miter;stroke-miterlimit:3.79999995;stroke-dasharray:none;stroke-opacity:1"
   d="m 46.3,496.3 5.9,10.65 5.9,-10.65" /><text
   xml:space="preserve"
   style="font-style:normal;font-weight:normal;line-height:0%;font-family:sans-serif;letter-spacing:0px;word-spacing:0px;fill:#000000;fill-opacity:1;stroke:none;stroke-width:1px;stroke-linecap:butt;stroke-linejoin:miter;stroke-opacity:1"
   x="304.88678"
   y="-6.0118408"
   id="text4210"
   transform="scale(1,-1)"><tspan
     sodipodi:role="line"
     id="tspan4212"
     x="304.88678"
     y="-6.0118408"
     style="font-size:32px;line-height:1.25">time</tspan></text>

<text
   transform="scale(1,-1)"
   id="text4218"
   y="-560.81989"
   x="-4.2941628"
   style="font-style:normal;font-weight:normal;line-height:0%;font-family:sans-serif;letter-spacing:0px;word-spacing:0px;fill:#000000;fill-opacity:1;stroke:none;stroke-width:1px;stroke-linecap:butt;stroke-linejoin:miter;stroke-opacity:1"
   xml:space="preserve"><tspan
     y="-560.81989"
     x="-4.2941628"
     id="tspan4220"
     sodipodi:role="line"
     style="font-size:32px;line-height:1.25">development</tspan><tspan
     y="-520.81989"
     x="-4.2941628"
     sodipodi:role="line"
     id="tspan4222"
     style="font-size:32px;line-height:1.25">speed</tspan></text>

<text
   xml:space="preserve"
   style="font-style:normal;font-weight:normal;line-height:0%;font-family:sans-serif;letter-spacing:0px;word-spacing:0px;fill:#ff0000;fill-opacity:1;stroke:none;stroke-width:1px;stroke-linecap:butt;stroke-linejoin:miter;stroke-opacity:1;"
   x="301.28564"
   y="-140.28586"
   id="text4224"
   transform="scale(1,-1)"><tspan
     sodipodi:role="line"
     x="301.28564"
     y="-140.28586"
     style="font-size:32px;line-height:1.25;fill:#ff0000;"
     id="tspan4535">quick hacks</tspan></text>

<text
   transform="scale(1,-1)"
   id="text4232"
   y="-405.44986"
   x="300.90176"
   style="font-style:normal;font-weight:normal;line-height:0%;font-family:sans-serif;letter-spacing:0px;word-spacing:0px;fill:#0000ff;fill-opacity:1;stroke:none;stroke-width:1px;stroke-linecap:butt;stroke-linejoin:miter;stroke-opacity:1;"
   xml:space="preserve"><tspan
     y="-405.44986"
     x="300.90176"
     sodipodi:role="line"
     style="font-size:32px;line-height:1.25;fill:#0000ff;"
     id="tspan4533">properly implemented</tspan></text>

</g></svg>
